<svg xmlns="http://www.w3.org/2000/svg" width="75" height="29" viewBox="0 0 75 29"><path fill="#0F519D" d="M70.425 0l-1.013 1.013 2.42 2.42h-66.033c-.339-1.237-1.464-2.194-2.872-2.194-1.632 0-2.927 1.294-2.927 2.927s1.295 2.927 2.927 2.927c1.351 0 2.533-.957 2.871-2.196h66.034l-2.42 2.42 1.013 1.013 4.222-4.222c0 .002-4.222-4.108-4.222-4.108z"/><path fill="#fff" d="M9.778 14.203h3.813v14.797h-3.415l-6.033-8.138v8.138h-3.813v-14.797h3.415l6.089 8.138v-8.138h-.056zm7.74 0v14.797h3.813v-14.797h-3.813zm56.799 14.797l-4.781-7.627 4.61-7.171h-4.382l-2.618 4.439-2.618-4.439h-4.382l4.61 7.171-4.781 7.627h4.496l2.675-4.553 2.674 4.553h4.497zm-20.318-14.797l5.349 14.797h-3.984l-.853-2.618h-5.407l-.91 2.618h-3.984l5.35-14.797h4.439zm-.626 8.821l-1.594-4.724-1.593 4.724h3.187zm-16.106-8.821l-3.471 9.448-3.472-9.448h-5.065v14.797h3.813v-8.366l3.072 8.366h3.244l3.073-8.366v8.366h3.87v-14.797h-5.064z"/></svg>